PathFileType	4	(X/Y/Z)	C:\Users\Basilio\Documents\Thesis Gigler\squatting_fais\c3dfiles\047\SJ_pre5\markers_experimental.trc
DataRate	CameraRate	NumFrames	NumMarkers	Units	OrigDataRate	OrigDataStartFrame	OrigNumFrames
200.000000	200.000000	4	61	mm	200.000000	1218	1393
Frame#	Time	FHD			LBHD			RBHD			C7			T10			CLAV			LSHO			LUUPA			LMUPA			LDUPA			LLEP			LMEP			LRAD			LUL			LRFIN			RSHO			RUPA1			RMUPA			RDUPA			RLEP			RMEP			RRAD			RUL			RUFIN			LASI			RASI			USACR			LSACR			RSACR			LTHI1			LTHI2			LTHI3			LTHI4			LLFC			LMFC			LTIB1			LTIB2			LTIB3			LTIB4			LLMAL			LMMAL			LMT1			LMT2			LMT5			RTHI			RTHI2			RTHI3			RTHI4			RLFC			RMFC			RTIB1			RTIB2			RTIB3			RTIB4			RLMAL			RMMAL			RHEE			RMT1			RMT2			RMT5			*60			
		X1	Y1	Z1	X2	Y2	Z2	X3	Y3	Z3	X4	Y4	Z4	X5	Y5	Z5	X6	Y6	Z6	X7	Y7	Z7	X8	Y8	Z8	X9	Y9	Z9	X10	Y10	Z10	X11	Y11	Z11	X12	Y12	Z12	X13	Y13	Z13	X14	Y14	Z14	X15	Y15	Z15	X16	Y16	Z16	X17	Y17	Z17	X18	Y18	Z18	X19	Y19	Z19	X20	Y20	Z20	X21	Y21	Z21	X22	Y22	Z22	X23	Y23	Z23	X24	Y24	Z24	X25	Y25	Z25	X26	Y26	Z26	X27	Y27	Z27	X28	Y28	Z28	X29	Y29	Z29	X30	Y30	Z30	X31	Y31	Z31	X32	Y32	Z32	X33	Y33	Z33	X34	Y34	Z34	X35	Y35	Z35	X36	Y36	Z36	X37	Y37	Z37	X38	Y38	Z38	X39	Y39	Z39	X40	Y40	Z40	X41	Y41	Z41	X42	Y42	Z42	X43	Y43	Z43	X44	Y44	Z44	X45	Y45	Z45	X46	Y46	Z46	X47	Y47	Z47	X48	Y48	Z48	X49	Y49	Z49	X50	Y50	Z50	X51	Y51	Z51	X52	Y52	Z52	X53	Y53	Z53	X54	Y54	Z54	X55	Y55	Z55	X56	Y56	Z56	X57	Y57	Z57	X58	Y58	Z58	X59	Y59	Z59	X60	Y60	Z60	X61	Y61	Z61	

1219	6.09	-77.82629394531251	1676.469604492188	-924.4770507812502	-254.8825683593751	1652.67529296875	-960.5725097656252	-239.7251129150391	1652.302124023438	-812.3015136718752	-308.2745056152344	1490.40576171875	-892.3425903320315	-367.8636474609376	1167.121704101563	-887.6907958984377	-157.4040985107422	1415.303100585938	-905.1228027343752	-227.3331756591797	1449.438720703125	-1079.145141601563	-351.8806762695313	1346.332275390625	-1192.223876953125	-316.6403503417969	1317.51318359375	-1217.38671875	-370.8444824218751	1294.473754882813	-1235.231323242188	-368.7927551269532	1230.104125976563	-1272.3603515625	-422.5936889648439	1204.162109375	-1193.218872070313	-267.4497680664063	1066.093017578125	-1102.940795898438	-230.9787139892579	1036.125366210938	-1164.672729492188	-205.6049041748047	1065.97998046875	-1071.193603515625	-215.8812408447266	1468.970092773438	-731.8931884765626	-336.1940612792969	1368.495483398438	-595.7492675781251	-303.8770751953126	1337.741821289063	-573.9459228515626	-355.2477416992188	1316.766235351563	-551.2733764648439	-351.0992126464844	1250.4580078125	-515.8323364257814	-410.0140991210939	1220.564086914063	-582.1536865234376	-221.9539947509766	1117.456665039063	-689.0758666992189	-199.7659454345704	1076.60791015625	-630.3374633789064	-173.7264862060547	1083.245361328125	-730.6579589843751	-175.1709442138672	956.4605102539065	-1015.608703613281	-162.2092895507813	958.3220214843752	-782.2192382812502	-358.6122436523438	1021.257141113281	-893.4172973632815	-361.4040222167969	989.428894042969	-921.493591308594	-355.7139892578126	989.3694458007815	-864.0259399414065	-284.5134582519532	814.7255859375002	-1093.306518554688	-256.3490295410157	737.6301879882814	-1113.515747070313	-208.7112426757813	737.1557617187501	-1109.977783203125	-286.8730163574219	684.9399414062501	-1113.4873046875	-319.1617431640626	511.0237731933595	-1106.47119140625	-259.3908691406251	475.7514953613282	-1005.829895019531	-284.5042419433594	307.8135070800782	-1069.457275390625	-320.6820068359376	280.9010925292969	-1145.206176757813	-290.2197570800782	268.6432189941407	-1111.331665039063	-304.8673706054688	185.8536376953125	-1096.145141601563	-372.6996765136719	99.0677185058594	-1151.054443359375	-330.4141235351563	98.26226806640628	-1069.489501953125	-210.7024536132813	65.54160308837892	-1132.560913085938	-223.3396759033204	63.38984680175783	-1173.743896484375	-274.9573669433594	45.91746902465821	-1210.546508789063	-287.8734130859376	789.2600708007815	-693.4508666992189	-256.8329772949219	732.0076293945314	-677.7952270507814	-224.0201263427735	731.9792480468751	-679.2075195312501	-289.3271789550782	654.2094116210939	-683.3816528320314	-300.5621948242188	502.8784484863282	-687.0215454101564	-248.0657196044922	482.3331298828126	-793.5817871093752	-270.6976013183594	374.4900817871094	-680.4238891601564	-341.9692687988282	297.5426635742188	-649.6264038085939	-295.3921813964844	296.3264770507813	-652.0165405273439	-278.7520446777344	244.5127105712891	-676.8055419921876	-346.6419982910157	93.6251678466797	-647.2667846679689	-299.1788024902344	102.1258163452149	-727.9589843750001	-389.2289428710939	51.93502044677736	-705.4797973632814	-178.2204895019532	56.07623672485353	-673.5456542968751	-188.0513763427735	57.51062393188478	-629.4052124023439	-245.2078247070313	29.44026184082032	-583.0826416015626	nan	nan	nan	
1220	6.095	-78.39282226562501	1676.3115234375	-924.339782714844	-255.4292602539063	1652.510009765625	-960.6549072265627	-240.1964569091797	1652.0869140625	-812.3342285156252	-308.8336181640626	1490.319091796875	-892.2903442382815	-368.0626220703126	1166.9384765625	-887.4973144531252	-157.9453277587891	1415.611328125	-905.1146240234377	-227.8174285888672	1449.443603515625	-1079.201904296875	-352.6029663085938	1346.335815429688	-1192.205688476563	-317.1530761718751	1317.590454101563	-1217.390991210938	-371.6068115234376	1294.35205078125	-1235.062866210938	-369.6689453125001	1230.073852539063	-1272.372192382813	-423.2339782714845	1204.05712890625	-1193.170288085938	-267.6597900390626	1066.296630859375	-1103.045532226563	-230.9493560791016	1036.468139648438	-1165.107299804688	-205.8842163085938	1066.367431640625	-1071.421142578125	-216.5827026367188	1469.003173828125	-731.6624145507814	-336.8824768066407	1368.931396484375	-595.5275878906251	-304.5367431640626	1338.16357421875	-573.8548583984376	-355.8137817382813	1317.115478515625	-551.1782836914064	-351.7719116210938	1250.901123046875	-515.6246948242189	-410.7987060546876	1220.902221679688	-582.0886230468751	-222.1502685546876	1117.784545898438	-688.8905639648439	-200.4614868164063	1077.285400390625	-629.9367675781251	-174.114242553711	1083.990112304688	-730.2824707031251	-175.0203094482422	956.7756347656252	-1015.527526855469	-162.0889129638672	958.3796997070315	-781.9187011718752	-358.6716308593751	1020.901000976563	-893.0252685546877	-361.4248657226563	989.0679931640627	-921.2220458984377	-355.6659240722657	988.8619384765627	-863.7273559570315	-284.5816040039063	814.8204345703127	-1093.039672851563	-256.2591552734376	737.6995849609376	-1113.458984375	-208.5236968994141	737.1951293945314	-1109.996704101563	-286.7517395019532	684.9869995117189	-1113.368774414063	-318.8505249023438	511.0669250488282	-1106.392944335938	-258.9525451660157	475.591766357422	-1005.950378417969	-284.3632812500001	307.7226562500001	-1069.458251953125	-320.5146789550782	280.8918762207032	-1145.14306640625	-290.1191101074219	268.5699157714844	-1111.36279296875	-304.7502746582032	185.8278198242188	-1096.168579101563	-372.7268371582032	99.10752868652347	-1150.98828125	-330.4295654296876	98.13317871093753	-1069.464111328125	-210.8165130615235	65.53613281250001	-1132.51806640625	-223.1549987792969	63.68545532226564	-1173.972534179688	-274.5559387207032	45.84759902954102	-1210.6806640625	-287.8415527343751	789.2801513671877	-693.4534301757814	-256.9355468750001	731.9448852539064	-677.8908081054689	-223.9227600097657	732.0743408203126	-679.0536499023439	-289.2131958007813	654.2498779296876	-683.3136596679689	-300.3083801269532	502.8554687500001	-686.8259277343751	-247.6904602050782	482.2888183593751	-793.3203125000002	-270.5545654296876	374.4689941406251	-680.2224121093751	-341.8132019042969	297.5572814941407	-649.6292724609376	-295.1820678710938	296.3157958984376	-652.0212402343751	-278.6624145507813	244.4646911621094	-676.7305908203126	-346.6506652832032	93.58349609375001	-647.3172607421876	-299.2940368652344	102.0691833496094	-727.8882446289064	-389.2033996582032	51.89535903930665	-705.4844360351564	-178.7334442138672	55.941219329834	-673.6398925781251	-188.0624389648438	57.5730323791504	-629.4362792968751	-245.2132110595704	29.42288970947266	-583.1027832031251	nan	nan	nan	
1221	6.100000000000001	-78.82989501953126	1676.363525390625	-924.7120361328127	-256.1274414062501	1652.258178710938	-960.7781982421877	-240.4504699707032	1651.997314453125	-812.6196899414065	-309.3342590332032	1490.157836914063	-892.2500610351565	-368.3628234863282	1166.678833007813	-887.2957763671877	-158.4521484375	1415.256103515625	-905.1040649414065	-228.3893737792969	1449.381225585938	-1079.135131835938	-353.3762512207032	1346.464965820313	-1192.171508789063	-317.8698425292969	1317.496704101563	-1217.214599609375	-372.1688537597657	1294.301879882813	-1235.044189453125	-370.2499084472657	1230.122192382813	-1272.358642578125	-423.9378356933595	1204.043701171875	-1193.0576171875	-268.0246582031251	1066.419189453125	-1103.111206054688	-231.2748718261719	1036.692993164063	-1165.279541015625	-206.2865142822266	1066.6513671875	-1071.575927734375	-216.8649597167969	1469.156372070313	-731.9495849609376	-337.4357910156251	1369.387939453125	-595.3959960937501	-305.0997924804688	1338.84765625	-574.1368408203126	-356.6330566406251	1317.624877929688	-551.0263061523439	-352.5242919921876	1251.248901367188	-515.4565429687501	-411.3427734375001	1221.240600585938	-582.0081176757814	-222.3565216064454	1118.24169921875	-688.7697753906251	-200.7680664062501	1077.805541992188	-629.8123168945314	-174.6467590332032	1084.5341796875	-729.8403320312501	-175.1843719482422	957.0183105468752	-1015.590942382813	-162.200668334961	958.5437011718752	-782.480407714844	-358.6828308105469	1020.534973144531	-892.6951904296877	-361.3216857910157	988.740661621094	-920.9333496093752	-355.5604248046876	988.5429687500002	-863.4808349609377	-284.5859985351563	814.8174438476565	-1092.812133789063	-256.1791076660157	737.7457885742189	-1113.338989257813	-208.7117462158204	737.3797607421876	-1109.996459960938	-286.6444396972657	684.9280395507814	-1113.265869140625	-318.4803161621094	511.0248107910157	-1106.311889648438	-258.0036010742188	475.8099670410157	-1006.322509765625	-284.1466064453126	307.7082214355469	-1069.521240234375	-320.5006713867188	280.8622741699219	-1145.0595703125	-290.1063232421876	268.5202331542969	-1111.378295898438	-304.6271972656251	185.7983703613282	-1096.092163085938	-372.6933898925782	99.10757446289065	-1150.887329101563	-330.3357849121094	98.24172210693362	-1069.362915039063	-210.698959350586	65.52330017089845	-1132.530029296875	-223.151840209961	63.68995666503908	-1173.997802734375	-274.5365905761719	45.84783935546876	-1210.676025390625	-287.8556518554688	789.2821044921877	-693.4057006835939	-256.8078308105469	732.2505493164064	-677.4483642578126	-223.9698028564454	732.1777954101564	-678.8323974609376	-289.2265930175782	654.2360839843751	-683.1738891601564	-300.1445312500001	502.8671875000001	-686.6889038085939	-247.3999328613282	482.2501525878907	-793.0695800781252	-270.4661254882813	374.4458923339844	-680.0595703125001	-341.8090515136719	297.5118103027344	-649.5640258789064	-295.1450195312501	296.2506103515626	-651.9354248046876	-278.6291198730469	244.3999481201172	-676.5809936523439	-346.6564941406251	93.58677673339845	-647.3085327148439	-299.2624206542969	102.11083984375	-727.8833618164064	-389.1717224121095	51.84126663208009	-705.4579467773439	-178.7392272949219	55.92771911621095	-673.6057128906251	-188.0908355712891	57.64673233032228	-629.3546142578126	-245.2406768798829	29.44202423095704	-583.1129150390626	nan	nan	nan	
1222	6.105	-79.64914703369142	1676.211791992188	-924.8511352539065	-256.7276000976563	1652.015991210938	-960.8269042968752	-241.1430358886719	1651.880859375	-812.533386230469	-309.8904724121094	1490.023559570313	-892.1697998046877	-368.6635437011719	1166.48486328125	-887.0307617187502	-158.9693756103516	1415.12744140625	-905.1058349609377	-228.9387817382813	1449.251953125	-1079.1142578125	-354.0141601562501	1346.471923828125	-1192.128784179688	-318.4798889160157	1317.516967773438	-1217.16552734375	-372.5991516113282	1294.284301757813	-1235.0849609375	-370.8179626464844	1230.199096679688	-1272.392944335938	-424.5120544433595	1203.915161132813	-1193.098754882813	-268.2720642089844	1066.615478515625	-1103.278198242188	-231.5371704101563	1036.87890625	-1165.304321289063	-206.8175659179688	1066.847534179688	-1071.55615234375	-217.4185638427735	1469.288940429688	-731.9228515625001	-337.8872985839844	1369.557373046875	-595.4534912109376	-305.7829284667969	1339.022094726563	-573.9693603515626	-357.1339416503907	1317.985473632813	-550.8557128906251	-353.5353698730469	1251.486938476563	-515.1072998046876	-411.9270935058595	1221.529907226563	-581.8804931640626	-222.8120574951172	1118.6982421875	-688.5770874023439	-201.2056121826172	1078.149658203125	-629.4657592773439	-174.8041381835938	1084.95263671875	-729.5052490234376	-175.2008056640625	957.312194824219	-1015.70703125	-161.9086456298828	958.3440551757815	-781.4449462890627	-358.6436157226563	1020.277770996094	-892.4426269531252	-361.2410583496094	988.482116699219	-920.725036621094	-355.4794616699219	988.4329833984377	-863.246520996094	-284.5840148925782	814.8422851562502	-1092.580688476563	-256.2527160644532	737.7514038085939	-1113.20947265625	-208.6363067626954	737.4488525390626	-1110.020141601563	-287.0226135253907	685.1004028320314	-1112.50634765625	-318.3100280761719	511.0781250000001	-1106.154174804688	-257.8860778808594	475.7385253906251	-1006.208984375	-283.8660278320313	307.7140808105469	-1069.475952148438	-320.4161071777344	280.9413452148438	-1144.923950195313	-290.0188598632813	268.4649353027344	-1111.303955078125	-304.5288696289063	185.7720184326172	-1096.129516601563	-372.7070617675782	99.11930084228518	-1150.7919921875	-330.2951049804688	98.22708892822268	-1069.271728515625	-210.750228881836	65.5081253051758	-1132.529663085938	-223.0588684082032	63.72535705566408	-1173.957397460938	-274.5484619140626	45.85461807250977	-1210.6689453125	-287.8254699707032	789.3150024414065	-693.4520874023439	-256.7958374023438	732.2763671875001	-677.3723754882814	-224.0082092285157	732.1810302734376	-678.7305297851564	-289.1606750488282	654.2023315429689	-683.1744995117189	-300.1489868164063	502.8600158691407	-686.5917358398439	-247.1706542968751	482.1966857910157	-792.9075927734377	-270.4229736328126	374.3378601074219	-679.9027709960939	-341.8166809082032	297.5070495605469	-649.5280151367189	-295.1885681152344	296.1505737304688	-651.8891601562501	-278.7231445312501	244.3023529052735	-676.3536376953126	-346.7599487304688	93.48455047607423	-647.2037353515626	-299.2950439453126	102.093994140625	-727.8173217773439	-389.2180786132814	51.84584045410158	-705.4627685546876	-178.4028015136719	55.92078399658205	-673.4625244140626	-188.105453491211	57.64325332641603	-629.3721313476564	-245.2194519042969	29.37882804870606	-583.1057739257814	nan	nan	nan	
